<svg xmlns="http://www.w3.org/2000/svg" viewBox="0 0 64 64"><defs><style>.cls-1{fill:none;stroke:#000;stroke-linecap:round;stroke-linejoin:round;}</style></defs><g id="Layer_2" data-name="Layer 2"><g id="Icons"><path d="M32,0A32,32,0,1,0,64,32,32,32,0,0,0,32,0Zm0,63A31,31,0,1,1,63,32,31,31,0,0,1,32,63Z"/><line class="cls-1" x1="31.78" y1="13.12" x2="31.78" y2="50.88"/><rect class="cls-1" x="14.44" y="15.6" width="11.1" height="11.1" rx="5.55"/><rect class="cls-1" x="38.03" y="15.6" width="11.1" height="11.1" rx="5.55"/><line class="cls-1" x1="23.8" y1="32.36" x2="16.17" y2="32.36"/><line class="cls-1" x1="23.8" y1="37.1" x2="16.17" y2="37.1"/><line class="cls-1" x1="23.8" y1="41.84" x2="16.17" y2="41.84"/><line class="cls-1" x1="20.24" y1="46.58" x2="16.17" y2="46.58"/><line class="cls-1" x1="47.46" y1="32.36" x2="39.83" y2="32.36"/><line class="cls-1" x1="47.46" y1="37.1" x2="39.83" y2="37.1"/><line class="cls-1" x1="44.23" y1="41.84" x2="39.83" y2="41.84"/><path d="M32,0A32,32,0,1,0,64,32,32,32,0,0,0,32,0Zm0,63A31,31,0,1,1,63,32,31,31,0,0,1,32,63Z"/><line class="cls-1" x1="31.78" y1="13.12" x2="31.78" y2="50.88"/><rect class="cls-1" x="14.44" y="15.6" width="11.1" height="11.1" rx="5.55"/><rect class="cls-1" x="38.03" y="15.6" width="11.1" height="11.1" rx="5.55"/><line class="cls-1" x1="23.8" y1="32.36" x2="16.17" y2="32.36"/><line class="cls-1" x1="23.8" y1="37.1" x2="16.17" y2="37.1"/><line class="cls-1" x1="23.8" y1="41.84" x2="16.17" y2="41.84"/><line class="cls-1" x1="20.24" y1="46.58" x2="16.17" y2="46.58"/><line class="cls-1" x1="47.46" y1="32.36" x2="39.83" y2="32.36"/><line class="cls-1" x1="47.46" y1="37.1" x2="39.83" y2="37.1"/><line class="cls-1" x1="44.23" y1="41.84" x2="39.83" y2="41.84"/><polyline class="cls-1" points="18.33 21.64 19.52 22.83 21.94 19.7"/><line class="cls-1" x1="42.32" y1="19.89" x2="44.83" y2="22.4"/><line class="cls-1" x1="44.83" y1="19.89" x2="42.32" y2="22.4"/></g></g></svg>